<svg width="24" height="24" viewBox="0 0 24 24" fill="none" xmlns="http://www.w3.org/2000/svg">
<path d="M2 6C2 5.44772 2.44772 5 3 5H6V8H2V6Z" fill="#4DAFFF"/>
<path d="M6 5H10V8H6V5Z" fill="#81D279"/>
<path d="M10 5H14V8H10V5Z" fill="#FFD14C"/>
<path d="M14 5H18V8H14V5Z" fill="#E46774"/>
<path d="M18 5H21C21.5523 5 22 5.44772 22 6V8H18V5Z" fill="#8C80CC"/>
<path d="M2 8H6V19H3C2.44772 19 2 18.5523 2 18V8Z" fill="#F7F7F7"/>
<path d="M6 8H10V19H6V8Z" fill="#D9D9D9"/>
<path d="M10 8H14V19H10V8Z" fill="#F7F7F7"/>
<path d="M14 8H18V19H14V8Z" fill="#D9D9D9"/>
<path d="M18 8H22V18C22 18.5523 21.5523 19 21 19H18V8Z" fill="#F7F7F7"/>
<circle cx="18.5" cy="15.5" r="5" fill="#F7F7F7"/>
<path d="M15.1667 12.9067V14.8517H16.9849" stroke="#1E1E1E" stroke-width="0.666667" stroke-linecap="round" stroke-linejoin="round"/>
<path d="M21.8333 18.0933V16.1483H20.0151" stroke="#1E1E1E" stroke-width="0.666667" stroke-linecap="round" stroke-linejoin="round"/>
<path d="M21.0727 14.5275C20.9191 14.0629 20.6579 13.6476 20.3135 13.3202C19.9692 12.9928 19.5529 12.764 19.1036 12.6553C18.6542 12.5465 18.1865 12.5613 17.7439 12.6982C17.3013 12.8352 16.8984 13.0898 16.5727 13.4383L15.1667 14.8517M21.8334 16.1483L20.4273 17.5617C20.1016 17.9102 19.6987 18.1648 19.2561 18.3018C18.8136 18.4387 18.3458 18.4535 17.8965 18.3447C17.4471 18.236 17.0309 18.0072 16.6865 17.6798C16.3422 17.3524 16.081 16.9371 15.9273 16.4725" stroke="#1E1E1E" stroke-width="0.666667" stroke-linecap="round" stroke-linejoin="round"/>
</svg>
