<svg width="24" height="24" viewBox="0 0 24 24" fill="none" xmlns="http://www.w3.org/2000/svg">
<path d="M19.5 4.00005H4.5C3.67157 4.00005 3 4.67162 3 5.50005V20.5C3 21.3284 3.67157 22 4.5 22H19.5C20.3284 22 21 21.3284 21 20.5V5.50005C21 4.67162 20.3284 4.00005 19.5 4.00005Z" fill="#D9D9D9"/>
<path d="M21 7.1481V3.5C21 2.67502 20.325 2 19.5 2H4.5C3.67502 2 3 2.67502 3 3.5V7.1481H21Z" fill="#D92638"/>
<path d="M5.25037 14.4699C5.25037 13.9177 5.69809 13.4699 6.25037 13.4699H6.95023C7.50251 13.4699 7.95023 13.9177 7.95023 14.4699V15.1698C7.95023 15.7221 7.50251 16.1698 6.95023 16.1698H6.25037C5.69809 16.1698 5.25037 15.7221 5.25037 15.1698V14.4699Z" fill="#808080"/>
<path d="M5.25037 18.0697C5.25037 17.5175 5.69809 17.0697 6.25037 17.0697H6.95023C7.50251 17.0697 7.95023 17.5175 7.95023 18.0697V18.7696C7.95023 19.3219 7.50251 19.7696 6.95023 19.7696H6.25037C5.69809 19.7696 5.25037 19.3219 5.25037 18.7696V18.0697Z" fill="#808080"/>
<path d="M8.85016 10.8701C8.85016 10.3178 9.29788 9.87012 9.85016 9.87012H10.55C11.1023 9.87012 11.55 10.3178 11.55 10.8701V11.57C11.55 12.1223 11.1023 12.57 10.55 12.57H9.85016C9.29788 12.57 8.85016 12.1223 8.85016 11.57V10.8701Z" fill="#404040"/>
<path d="M8.85016 14.4699C8.85016 13.9177 9.29788 13.4699 9.85016 13.4699H10.55C11.1023 13.4699 11.55 13.9177 11.55 14.4699V15.1698C11.55 15.7221 11.1023 16.1698 10.55 16.1698H9.85016C9.29788 16.1698 8.85016 15.7221 8.85016 15.1698V14.4699Z" fill="#808080"/>
<path d="M8.85016 18.0697C8.85016 17.5175 9.29788 17.0697 9.85016 17.0697H10.55C11.1023 17.0697 11.55 17.5175 11.55 18.0697V18.7696C11.55 19.3219 11.1023 19.7696 10.55 19.7696H9.85016C9.29788 19.7696 8.85016 19.3219 8.85016 18.7696V18.0697Z" fill="#808080"/>
<path d="M12.45 10.8701C12.45 10.3178 12.8977 9.87012 13.45 9.87012H14.1499C14.7022 9.87012 15.1499 10.3178 15.1499 10.8701V11.57C15.1499 12.1223 14.7022 12.57 14.1499 12.57H13.45C12.8977 12.57 12.45 12.1223 12.45 11.57V10.8701Z" fill="#808080"/>
<path d="M12.45 14.4699C12.45 13.9177 12.8977 13.4699 13.45 13.4699H14.1499C14.7022 13.4699 15.1499 13.9177 15.1499 14.4699V15.1698C15.1499 15.7221 14.7022 16.1698 14.1499 16.1698H13.45C12.8977 16.1698 12.45 15.7221 12.45 15.1698V14.4699Z" fill="#808080"/>
<path d="M12.45 18.0697C12.45 17.5175 12.8977 17.0697 13.45 17.0697H14.1499C14.7022 17.0697 15.1499 17.5175 15.1499 18.0697V18.7696C15.1499 19.3219 14.7022 19.7696 14.1499 19.7696H13.45C12.8977 19.7696 12.45 19.3219 12.45 18.7696V18.0697Z" fill="#808080"/>
<path d="M16.0498 10.8701C16.0498 10.3178 16.4975 9.87012 17.0498 9.87012H17.7497C18.3019 9.87012 18.7497 10.3178 18.7497 10.8701V11.57C18.7497 12.1223 18.3019 12.57 17.7497 12.57H17.0498C16.4975 12.57 16.0498 12.1223 16.0498 11.57V10.8701Z" fill="#808080"/>
<path d="M16.0498 14.4699C16.0498 13.9177 16.4975 13.4699 17.0498 13.4699H17.7497C18.3019 13.4699 18.7497 13.9177 18.7497 14.4699V15.1698C18.7497 15.7221 18.3019 16.1698 17.7497 16.1698H17.0498C16.4975 16.1698 16.0498 15.7221 16.0498 15.1698V14.4699Z" fill="#808080"/>
<path d="M21 6H3V7.5H21V6Z" fill="#0D0203"/>
<path d="M18 24C21.3137 24 24 21.3137 24 18C24 14.6863 21.3137 12 18 12C14.6863 12 12 14.6863 12 18C12 21.3137 14.6863 24 18 24Z" fill="#D92638"/>
<path d="M18 14.4V18L20.4 19.2" stroke="black" stroke-width="1.8" stroke-linecap="round" stroke-linejoin="round"/>
</svg>
