<svg width="24" height="24" viewBox="0 0 24 24" fill="none" xmlns="http://www.w3.org/2000/svg">
<path d="M2 6C2 5.44772 2.44772 5 3 5H6V8H2V6Z" fill="#4DAFFF"/>
<path d="M6 5H10V8H6V5Z" fill="#81D279"/>
<path d="M10 5H14V8H10V5Z" fill="#FFD14C"/>
<path d="M14 5H18V8H14V5Z" fill="#E46774"/>
<path d="M18 5H21C21.5523 5 22 5.44772 22 6V8H18V5Z" fill="#8C80CC"/>
<path d="M2 8H6V19H3C2.44772 19 2 18.5523 2 18V8Z" fill="#F7F7F7"/>
<path d="M6 8H10V19H6V8Z" fill="#D9D9D9"/>
<path d="M10 8H14V19H10V8Z" fill="#F7F7F7"/>
<path d="M14 8H18V19H14V8Z" fill="#D9D9D9"/>
<path d="M18 8H22V18C22 18.5523 21.5523 19 21 19H18V8Z" fill="#F7F7F7"/>
<circle cx="18.5" cy="15.5" r="5" fill="#4DAFFF"/>
<path d="M15.5 13.2772V14.9443H17.1364" stroke="white" stroke-width="0.888889" stroke-linecap="round" stroke-linejoin="round"/>
<path d="M21.5 17.7228V16.0557H19.8636" stroke="white" stroke-width="0.888889" stroke-linecap="round" stroke-linejoin="round"/>
<path d="M20.8155 14.6664C20.6771 14.2682 20.4421 13.9122 20.1321 13.6316C19.8222 13.3509 19.4476 13.1549 19.0432 13.0617C18.6388 12.9684 18.2178 12.9811 17.8195 13.0985C17.4212 13.2158 17.0586 13.4341 16.7655 13.7329L15.5 14.9443M21.5 16.0557L20.2345 17.2671C19.9414 17.5659 19.5788 17.7842 19.1805 17.9015C18.7822 18.0189 18.3612 18.0316 17.9568 17.9383C17.5524 17.8451 17.1778 17.6491 16.8679 17.3684C16.5579 17.0878 16.3229 16.7318 16.1845 16.3336" stroke="white" stroke-width="0.888889" stroke-linecap="round" stroke-linejoin="round"/>
<path d="M1 8.00002C2 8.00002 3.00001 6.00001 3.00001 4C3.00001 6.00001 4.00001 8.00002 5 8.00002C4.00001 8.00002 3.00001 10 3.00001 12C3.00001 10 2 8.00002 1 8.00002Z" fill="#E6AB00"/>
<path d="M4 11C5.25001 11 6.50001 8.50001 6.50001 6C6.50001 8.50001 7.75002 11 9 11C7.75002 11 6.50001 13.5 6.50001 16C6.50001 13.5 5.25001 11 4 11Z" fill="#E6AB00"/>
<path d="M6.5 5.5C7.125 5.5 7.75 4.25 7.75 3C7.75 4.25 8.375 5.5 8.99999 5.5C8.375 5.5 7.75 6.75 7.75 8C7.75 6.75 7.125 5.5 6.5 5.5Z" fill="#E6AB00"/>
</svg>
